<?xml version="1.0" encoding="UTF-8"?> <svg xmlns="http://www.w3.org/2000/svg" xmlns:xlink="http://www.w3.org/1999/xlink" width="509.1pt" height="544.5pt" viewBox="0 0 509.1 544.5" version="1.1"><defs><clipPath id="clip1"><path d="M 16 452 L 509.101563 452 L 509.101563 544.5 L 16 544.5 Z M 16 452 "></path></clipPath></defs><g id="surface1"><path style=" stroke:none;fill-rule:evenodd;fill:rgb(94.139099%,48.631287%,0%);fill-opacity:1;" d="M 367.609375 115.234375 C 342.488281 98.015625 278.75 124.703125 220.457031 181.046875 C 208.015625 194.480469 177.570313 226.261719 201.75 256.613281 C 227.144531 280.976563 276.597656 257.039063 298.964844 239.773438 C 340.820313 205.3125 397.269531 138.289063 367.609375 115.234375 Z M 367.609375 115.234375 "></path><path style=" stroke:none;fill-rule:evenodd;fill:rgb(94.139099%,48.631287%,0%);fill-opacity:1;" d="M 357.378906 35.65625 C 306.835938 31.019531 225.84375 58.164063 175.542969 97.613281 C 121.0625 140.746094 64.164063 195.859375 58.351563 269.894531 C 45.125 338.164063 110.105469 381.753906 184.859375 379.800781 C 206.378906 378.039063 286.25 359.273438 341.183594 328.046875 C 369.117188 305.863281 385.886719 330.453125 364.820313 344.109375 C 304.410156 382.632813 243.363281 404.488281 186.3125 417.894531 C 38.917969 439.621094 0.0273438 363.179688 16.613281 269.789063 C 31.082031 158.589844 171.820313 -0.0078125 353.6875 14.304688 C 378.171875 14.855469 380.472656 37.4375 357.378906 35.65625 Z M 357.378906 35.65625 "></path><path style=" stroke:none;fill-rule:evenodd;fill:rgb(94.139099%,48.631287%,0%);fill-opacity:1;" d="M 356.984375 63.078125 C 380.078125 64.855469 377.839844 81.597656 359.195313 83.277344 C 265.796875 86.910156 171.214844 172.800781 151.964844 234.078125 C 136.707031 286.914063 177.871094 309.671875 229.441406 303.558594 C 289.367188 290.074219 317.394531 270.273438 350.808594 240.800781 C 367.605469 228.445313 381.226563 245.964844 368.695313 257.015625 C 326.65625 286.714844 278.019531 332.078125 200.570313 338.871094 C 117.367188 345.8125 90.976563 295.257813 114.496094 232.675781 C 143.21875 155.660156 243.277344 62.472656 356.984375 63.078125 Z M 356.984375 63.078125 "></path><g clip-path="url(#clip1)" clip-rule="nonzero"><path style=" stroke:none;fill-rule:evenodd;fill:rgb(94.139099%,48.631287%,0%);fill-opacity:1;" d="M 93.03125 512.609375 L 102.660156 512.609375 C 103.421875 512.691406 104.074219 512.789063 104.617188 512.914063 C 105.160156 513.039063 105.539063 513.1875 105.757813 513.355469 C 106.085938 513.519531 106.328125 513.746094 106.492188 514.039063 C 106.65625 514.328125 106.738281 514.679688 106.738281 515.09375 C 106.738281 516.167969 106.382813 517.480469 105.675781 519.011719 C 104.96875 520.542969 103.910156 522.265625 102.496094 524.171875 C 101.082031 526.164063 99.421875 528.152344 97.519531 530.144531 C 95.617188 532.132813 93.464844 534.164063 91.074219 536.238281 C 89.550781 537.5625 87.949219 538.683594 86.261719 539.59375 C 84.578125 540.5 82.863281 541.207031 81.125 541.707031 C 79.382813 542.371094 77.425781 542.828125 75.25 543.074219 C 73.074219 543.324219 70.738281 543.449219 68.234375 543.449219 C 59.644531 543.449219 52.085938 542.683594 45.558594 541.148438 C 39.03125 539.613281 33.648438 537.1875 29.40625 533.871094 C 25.058594 530.558594 21.824219 526.433594 19.703125 521.496094 C 17.582031 516.566406 16.519531 510.828125 16.519531 504.277344 C 16.519531 497.0625 17.390625 490.433594 19.128906 484.378906 C 20.871094 478.328125 23.480469 472.855469 26.960938 467.964844 C 30.441406 463.074219 34.277344 459.40625 38.460938 456.960938 C 42.648438 454.511719 47.246094 453.289063 52.25 453.289063 C 56.707031 453.289063 60.976563 453.496094 65.054688 453.914063 C 69.132813 454.328125 73.128906 454.90625 77.042969 455.652344 C 80.851563 456.484375 84.113281 457.351563 86.832031 458.265625 C 89.550781 459.171875 91.617188 460.167969 93.03125 461.246094 C 94.554688 462.328125 95.914063 463.839844 97.113281 465.789063 C 98.308594 467.738281 99.449219 470.078125 100.539063 472.8125 C 101.625 475.546875 102.414063 478.347656 102.902344 481.207031 C 103.390625 484.070313 103.636719 486.992188 103.636719 489.976563 C 103.636719 490.804688 103.554688 491.488281 103.390625 492.027344 C 103.226563 492.566406 102.875 493.039063 102.332031 493.457031 C 101.898438 493.871094 101.378906 494.183594 100.78125 494.390625 C 100.183594 494.597656 99.449219 494.699219 98.582031 494.699219 L 90.910156 494.824219 L 89.441406 494.824219 C 88.246094 494.90625 87.269531 494.472656 86.507813 493.519531 C 85.746094 492.566406 85.203125 491.171875 84.875 489.355469 C 84.765625 488.691406 84.65625 488.089844 84.550781 487.546875 C 84.441406 487.011719 84.386719 486.535156 84.386719 486.121094 C 83.625 482.722656 82.671875 479.671875 81.53125 476.980469 C 80.390625 474.285156 78.949219 471.945313 77.207031 469.953125 C 75.46875 468.042969 73.59375 466.597656 71.582031 465.601563 C 69.570313 464.605469 67.417969 464.109375 65.136719 464.109375 C 61.980469 464.109375 58.964844 465.105469 56.082031 467.09375 C 53.199219 469.082031 50.507813 472.027344 48.007813 475.921875 C 45.613281 479.738281 43.792969 484.042969 42.539063 488.855469 C 41.289063 493.664063 40.664063 498.886719 40.664063 504.523438 C 40.664063 509.746094 40.992188 514.246094 41.644531 518.019531 C 42.296875 521.789063 43.332031 524.835938 44.746094 527.15625 C 46.265625 529.480469 48.140625 531.21875 50.371094 532.378906 C 52.601563 533.539063 55.238281 534.121094 58.285156 534.121094 C 59.261719 534.121094 60.269531 534.058594 61.300781 533.9375 C 62.335938 533.8125 63.339844 533.621094 64.320313 533.371094 C 65.300781 533.121094 66.304688 532.792969 67.335938 532.378906 C 68.371094 531.964844 69.378906 531.511719 70.355469 531.011719 C 72.421875 529.933594 74.515625 528.585938 76.636719 526.972656 C 78.757813 525.355469 80.90625 523.46875 83.082031 521.3125 C 83.84375 520.652344 84.578125 519.902344 85.285156 519.074219 C 85.992188 518.246094 86.722656 517.289063 87.484375 516.214844 C 88.246094 515.054688 89.089844 514.183594 90.015625 513.601563 C 90.9375 513.023438 91.945313 512.734375 93.03125 512.734375 Z M 166.933594 465.476563 C 162.585938 465.558594 158.75 466.472656 155.433594 468.210938 C 152.117188 469.953125 149.261719 472.566406 146.867188 476.042969 C 144.476563 479.53125 142.707031 483.738281 141.566406 488.664063 C 140.425781 493.601563 139.851563 499.261719 139.851563 505.644531 C 139.851563 509.957031 140.371094 513.851563 141.402344 517.332031 C 142.4375 520.816406 143.984375 523.882813 146.050781 526.535156 C 148.117188 529.105469 150.539063 531.03125 153.3125 532.316406 C 156.085938 533.601563 159.160156 534.246094 162.53125 534.246094 C 166.335938 534.246094 169.761719 533.394531 172.808594 531.695313 C 175.851563 529.996094 178.570313 527.449219 180.964844 524.046875 C 183.355469 520.652344 185.125 516.664063 186.265625 512.113281 C 187.410156 507.546875 187.980469 502.496094 187.980469 496.9375 C 187.980469 492.128906 187.519531 487.820313 186.59375 484.007813 C 185.667969 480.191406 184.226563 476.878906 182.269531 474.058594 C 180.3125 471.15625 178.054688 469.023438 175.5 467.652344 C 172.941406 466.285156 170.089844 465.601563 166.933594 465.601563 Z M 114.566406 499.421875 C 114.566406 496.359375 114.839844 493.289063 115.382813 490.226563 C 115.925781 487.15625 116.742188 484.132813 117.832031 481.144531 C 118.917969 478.164063 120.167969 475.382813 121.582031 472.8125 C 122.996094 470.246094 124.628906 467.917969 126.476563 465.851563 C 128.324219 463.777344 130.3125 461.972656 132.429688 460.441406 C 134.550781 458.90625 136.808594 457.644531 139.199219 456.648438 C 141.703125 455.570313 144.449219 454.78125 147.441406 454.285156 C 150.429688 453.789063 153.667969 453.539063 157.148438 453.539063 C 165.628906 453.539063 173.269531 454.597656 180.066406 456.710938 C 186.867188 458.824219 192.765625 461.953125 197.765625 466.101563 C 202.878906 470.246094 206.683594 475.15625 209.1875 480.835938 C 211.691406 486.515625 212.941406 492.914063 212.941406 500.046875 C 212.941406 506.847656 211.933594 512.914063 209.921875 518.265625 C 207.910156 523.613281 204.890625 528.195313 200.867188 532.007813 C 196.84375 535.820313 192.003906 538.640625 186.347656 540.460938 C 180.691406 542.289063 174.222656 543.199219 166.933594 543.199219 C 158.996094 543.199219 151.84375 542.246094 145.480469 540.335938 C 139.121094 538.433594 133.546875 535.53125 128.757813 531.636719 C 124.082031 527.738281 120.546875 523.117188 118.15625 517.769531 C 115.761719 512.417969 114.566406 506.347656 114.566406 499.546875 Z M 251.113281 489.476563 L 251.113281 489.976563 C 251.113281 490.804688 251.195313 491.488281 251.359375 492.027344 C 251.523438 492.566406 251.820313 493.039063 252.253906 493.457031 C 252.582031 493.789063 253.015625 494.058594 253.5625 494.265625 C 254.105469 494.472656 254.757813 494.578125 255.519531 494.578125 C 256.386719 494.578125 257.53125 494.472656 258.945313 494.265625 C 260.359375 494.058594 262.097656 493.746094 264.167969 493.332031 C 265.144531 493.085938 266.148438 492.835938 267.183594 492.589844 C 268.214844 492.339844 269.277344 492.042969 270.367188 491.71875 C 271.453125 491.46875 272.511719 491.15625 273.546875 490.785156 C 274.578125 490.410156 275.585938 490.058594 276.5625 489.726563 C 278.628906 489.066406 280.425781 488.339844 281.949219 487.546875 C 283.46875 486.765625 284.773438 485.953125 285.863281 485.121094 C 286.84375 484.214844 287.601563 483.261719 288.148438 482.265625 C 288.691406 481.269531 288.960938 480.234375 288.960938 479.15625 C 288.960938 477.496094 288.363281 475.945313 287.167969 474.496094 C 285.972656 473.039063 284.121094 471.777344 281.621094 470.699219 C 279.230469 469.621094 276.425781 468.816406 273.21875 468.273438 C 270.011719 467.738281 266.394531 467.46875 262.371094 467.46875 C 259.976563 467.46875 258.019531 467.59375 256.496094 467.839844 C 254.976563 468.089844 253.941406 468.503906 253.398438 469.082031 C 252.960938 469.582031 252.582031 470.699219 252.253906 472.441406 C 251.929688 474.183594 251.710938 476.503906 251.601563 479.40625 Z M 250.625 525.664063 L 250.625 528.523438 C 250.625 529.273438 250.707031 529.894531 250.871094 530.390625 C 251.035156 530.886719 251.277344 531.21875 251.601563 531.386719 C 251.929688 531.636719 252.390625 531.820313 252.992188 531.945313 C 253.589844 532.070313 254.320313 532.132813 255.191406 532.132813 C 256.386719 532.132813 257.855469 532.007813 259.597656 531.757813 C 261.335938 531.511719 263.347656 531.136719 265.632813 530.640625 C 267.808594 530.144531 269.820313 529.582031 271.671875 528.960938 C 273.519531 528.339844 275.152344 527.738281 276.5625 527.15625 C 278.085938 526.496094 279.417969 525.769531 280.558594 524.980469 C 281.703125 524.195313 282.65625 523.386719 283.417969 522.554688 C 283.851563 522.140625 284.203125 521.707031 284.476563 521.246094 C 284.746094 520.792969 284.992188 520.316406 285.210938 519.820313 C 285.429688 519.40625 285.589844 518.96875 285.699219 518.515625 C 285.808594 518.058594 285.863281 517.621094 285.863281 517.210938 C 285.863281 515.71875 285.34375 514.433594 284.3125 513.355469 C 283.277344 512.277344 281.675781 511.363281 279.5 510.617188 C 277.433594 509.871094 274.824219 509.3125 271.671875 508.941406 C 268.515625 508.566406 264.875 508.382813 260.738281 508.382813 L 255.027344 508.257813 C 254.269531 508.339844 253.589844 508.441406 252.992188 508.566406 C 252.390625 508.691406 251.929688 508.914063 251.601563 509.246094 C 251.386719 509.496094 251.195313 509.871094 251.035156 510.371094 C 250.871094 510.867188 250.789063 511.53125 250.789063 512.359375 Z M 284.882813 500.914063 C 289.015625 501.582031 292.6875 502.433594 295.898438 503.46875 C 299.105469 504.503906 301.796875 505.726563 303.972656 507.136719 C 306.144531 508.542969 307.75 510.183594 308.785156 512.046875 C 309.816406 513.914063 310.332031 515.964844 310.332031 518.203125 C 310.332031 522.183594 308.863281 525.769531 305.929688 528.960938 C 302.992188 532.152344 298.585938 534.953125 292.714844 537.355469 C 286.734375 539.675781 279.851563 541.4375 272.078125 542.640625 C 264.300781 543.84375 255.519531 544.441406 245.730469 544.441406 C 242.03125 544.441406 238.90625 544.359375 236.347656 544.195313 C 233.792969 544.027344 231.917969 543.78125 230.722656 543.449219 C 229.527344 543.117188 228.628906 542.640625 228.027344 542.015625 C 227.429688 541.398438 227.132813 540.707031 227.132813 539.96875 C 227.132813 539.800781 227.132813 539.53125 227.132813 539.15625 C 227.132813 538.785156 227.1875 538.308594 227.296875 537.726563 C 227.621094 533.996094 227.894531 530.246094 228.113281 526.476563 C 228.328125 522.699219 228.4375 518.910156 228.4375 515.09375 L 228.4375 512.734375 L 228.113281 471.820313 C 228.113281 470.910156 228.058594 469.933594 227.949219 468.898438 C 227.839844 467.859375 227.675781 466.804688 227.460938 465.726563 C 227.242188 464.648438 227.078125 463.863281 226.96875 463.363281 C 226.863281 462.867188 226.808594 462.578125 226.808594 462.492188 C 226.808594 461.246094 227.429688 460.191406 228.683594 459.320313 C 229.933594 458.453125 231.808594 457.726563 234.3125 457.144531 C 236.8125 456.648438 240.183594 456.253906 244.425781 455.964844 C 248.667969 455.671875 253.722656 455.53125 259.597656 455.53125 C 266.996094 455.53125 273.707031 456.152344 279.746094 457.394531 C 285.78125 458.636719 291.136719 460.460938 295.8125 462.867188 C 300.492188 465.1875 304 467.882813 306.335938 470.949219 C 308.675781 474.015625 309.84375 477.371094 309.84375 481.023438 C 309.84375 483.261719 309.328125 485.355469 308.292969 487.296875 C 307.261719 489.246094 305.710938 491.054688 303.644531 492.710938 C 301.578125 494.285156 298.96875 495.777344 295.8125 497.1875 C 292.660156 498.597656 289.015625 499.882813 284.882813 501.039063 Z M 349.324219 509.371094 L 369.878906 509.621094 C 370.203125 509.707031 370.503906 509.6875 370.777344 509.5625 C 371.050781 509.4375 371.292969 509.332031 371.511719 509.246094 C 371.617188 509.164063 371.703125 509.105469 371.757813 509.0625 C 371.808594 509.023438 371.835938 508.960938 371.835938 508.878906 C 371.945313 508.789063 372.027344 508.691406 372.082031 508.566406 C 372.136719 508.441406 372.164063 508.292969 372.164063 508.128906 C 372.164063 508.128906 372.164063 508.089844 372.164063 508.007813 C 372.164063 507.917969 372.164063 507.839844 372.164063 507.757813 C 372.054688 507.671875 372 507.570313 372 507.449219 C 372 507.324219 372 507.179688 372 507.011719 C 372 506.929688 372 506.867188 372 506.824219 C 372 506.785156 372 506.761719 372 506.761719 L 360.417969 471.199219 L 347.039063 504.398438 C 346.929688 504.816406 346.824219 505.148438 346.714844 505.394531 C 346.605469 505.644531 346.496094 505.894531 346.386719 506.140625 C 346.386719 506.226563 346.386719 506.328125 346.386719 506.453125 C 346.386719 506.578125 346.386719 506.722656 346.386719 506.886719 C 346.277344 506.96875 346.222656 507.054688 346.222656 507.136719 C 346.222656 507.21875 346.222656 507.304688 346.222656 507.386719 C 346.222656 507.546875 346.25 507.71875 346.304688 507.882813 C 346.359375 508.042969 346.496094 508.214844 346.714844 508.382813 C 346.714844 508.464844 346.769531 508.542969 346.878906 508.628906 C 346.984375 508.710938 347.09375 508.789063 347.203125 508.878906 C 347.53125 509.039063 347.855469 509.1875 348.183594 509.3125 C 348.507813 509.4375 348.890625 509.496094 349.324219 509.496094 Z M 318.164063 541.832031 C 317.511719 541.832031 316.914063 541.808594 316.367188 541.769531 C 315.824219 541.726563 315.390625 541.625 315.0625 541.457031 C 314.738281 541.292969 314.519531 541.125 314.410156 540.957031 C 314.304688 540.792969 314.25 540.542969 314.25 540.210938 C 314.25 540.132813 314.25 540.050781 314.25 539.96875 C 314.25 539.882813 314.25 539.800781 314.25 539.71875 C 314.25 539.71875 314.25 539.675781 314.25 539.59375 C 314.25 539.511719 314.25 539.425781 314.25 539.34375 C 314.25 539.261719 314.277344 539.179688 314.332031 539.097656 C 314.386719 539.011719 314.410156 538.890625 314.410156 538.722656 C 314.410156 538.640625 314.441406 538.558594 314.492188 538.472656 C 314.546875 538.390625 314.574219 538.308594 314.574219 538.226563 L 347.039063 456.277344 C 347.257813 455.695313 347.554688 455.15625 347.9375 454.660156 C 348.320313 454.160156 348.726563 453.746094 349.160156 453.414063 C 349.597656 453.164063 350.140625 452.980469 350.792969 452.855469 C 351.445313 452.730469 352.152344 452.667969 352.914063 452.667969 L 372.164063 452.789063 C 373.46875 452.960938 374.527344 453.105469 375.34375 453.230469 C 376.160156 453.351563 376.679688 453.496094 376.894531 453.664063 C 377.113281 453.832031 377.386719 454.203125 377.710938 454.78125 C 378.039063 455.363281 378.363281 456.152344 378.691406 457.144531 L 403.8125 537.480469 C 403.921875 537.894531 404.003906 538.183594 404.058594 538.347656 C 404.113281 538.515625 404.140625 538.683594 404.140625 538.847656 C 404.140625 538.847656 404.140625 538.867188 404.140625 538.910156 C 404.140625 538.953125 404.140625 539.011719 404.140625 539.097656 C 404.140625 539.179688 404.140625 539.242188 404.140625 539.28125 C 404.140625 539.324219 404.140625 539.34375 404.140625 539.34375 C 404.140625 539.757813 404.085938 540.113281 403.976563 540.402344 C 403.867188 540.691406 403.703125 540.875 403.484375 540.957031 C 403.269531 541.207031 402.996094 541.375 402.671875 541.457031 C 402.34375 541.542969 401.964844 541.582031 401.527344 541.582031 L 385.867188 541.457031 C 385.324219 541.457031 384.808594 541.417969 384.316406 541.332031 C 383.828125 541.25 383.421875 541.125 383.09375 540.957031 C 382.769531 540.875 382.523438 540.667969 382.359375 540.335938 C 382.195313 540.007813 382.007813 539.59375 381.789063 539.097656 L 377.546875 527.15625 C 377.113281 526.328125 376.59375 525.5625 375.996094 524.855469 C 375.398438 524.152344 374.664063 523.59375 373.792969 523.179688 C 373.03125 522.761719 372.027344 522.472656 370.777344 522.308594 C 369.527344 522.140625 368.03125 522.058594 366.289063 522.058594 L 365.472656 521.933594 L 346.714844 522.308594 C 345.515625 522.390625 344.429688 522.515625 343.449219 522.679688 C 342.472656 522.847656 341.710938 523.097656 341.167969 523.421875 C 340.515625 523.757813 339.972656 524.195313 339.535156 524.734375 C 339.101563 525.273438 338.664063 525.957031 338.230469 526.785156 L 333.171875 538.347656 C 333.066406 538.597656 332.957031 538.828125 332.847656 539.035156 C 332.738281 539.242188 332.683594 539.425781 332.683594 539.59375 C 332.25 540.335938 331.707031 540.898438 331.054688 541.273438 C 330.402344 541.644531 329.640625 541.832031 328.769531 541.832031 Z M 463.195313 465.476563 C 458.84375 465.558594 455.011719 466.472656 451.691406 468.210938 C 448.375 469.953125 445.523438 472.566406 443.128906 476.042969 C 440.738281 479.53125 438.96875 483.738281 437.828125 488.664063 C 436.683594 493.601563 436.113281 499.261719 436.113281 505.644531 C 436.113281 509.957031 436.628906 513.851563 437.664063 517.332031 C 438.695313 520.816406 440.246094 523.882813 442.3125 526.535156 C 444.378906 529.105469 446.800781 531.03125 449.570313 532.316406 C 452.347656 533.601563 455.417969 534.246094 458.789063 534.246094 C 462.597656 534.246094 466.023438 533.394531 469.066406 531.695313 C 472.113281 529.996094 474.832031 527.449219 477.222656 524.046875 C 479.617188 520.652344 481.386719 516.664063 482.527344 512.113281 C 483.667969 507.546875 484.238281 502.496094 484.238281 496.9375 C 484.238281 492.128906 483.777344 487.820313 482.851563 484.007813 C 481.929688 480.191406 480.488281 476.878906 478.53125 474.058594 C 476.570313 471.15625 474.316406 469.023438 471.761719 467.652344 C 469.203125 466.285156 466.347656 465.601563 463.195313 465.601563 Z M 410.828125 499.421875 C 410.828125 496.359375 411.097656 493.289063 411.644531 490.226563 C 412.1875 487.15625 413.003906 484.132813 414.089844 481.144531 C 415.175781 478.164063 416.429688 475.382813 417.84375 472.8125 C 419.253906 470.246094 420.886719 467.917969 422.734375 465.851563 C 424.585938 463.777344 426.570313 461.972656 428.691406 460.441406 C 430.8125 458.90625 433.070313 457.644531 435.460938 456.648438 C 437.964844 455.570313 440.707031 454.78125 443.699219 454.285156 C 446.691406 453.789063 449.925781 453.539063 453.40625 453.539063 C 461.890625 453.539063 469.53125 454.597656 476.328125 456.710938 C 483.125 458.824219 489.027344 461.953125 494.027344 466.101563 C 499.140625 470.246094 502.949219 475.15625 505.449219 480.835938 C 507.949219 486.515625 509.199219 492.914063 509.199219 500.046875 C 509.199219 506.847656 508.195313 512.914063 506.183594 518.265625 C 504.167969 523.613281 501.152344 528.195313 497.128906 532.007813 C 493.105469 535.820313 488.265625 538.640625 482.609375 540.460938 C 476.953125 542.289063 470.480469 543.199219 463.195313 543.199219 C 455.257813 543.199219 448.105469 542.246094 441.742188 540.335938 C 435.378906 538.433594 429.804688 535.53125 425.019531 531.636719 C 420.34375 527.738281 416.808594 523.117188 414.417969 517.769531 C 412.023438 512.417969 410.828125 506.347656 410.828125 499.546875 Z M 410.828125 499.421875 "></path></g></g></svg> 